<svg width="300" height="21" viewBox="0 0 300 21" fill="none" xmlns="http://www.w3.org/2000/svg">
<path d="M1.88636 3.36362L5.34091 13.1591H5.47727L8.93182 3.36362H10.4091L6.13636 15H4.68182L0.409091 3.36362H1.88636ZM13.6307 3.36362V15H12.2216V3.36362H13.6307ZM22.8196 6.27271C22.7514 5.69695 22.4749 5.24998 21.9901 4.9318C21.5052 4.61362 20.9105 4.45453 20.206 4.45453C19.6908 4.45453 19.2401 4.53786 18.8537 4.70453C18.4711 4.8712 18.1719 5.10036 17.956 5.39203C17.7438 5.6837 17.6378 6.01514 17.6378 6.38635C17.6378 6.69695 17.7116 6.964 17.8594 7.18748C18.0109 7.40718 18.2041 7.59089 18.4389 7.73862C18.6738 7.88256 18.92 8.00188 19.1776 8.09658C19.4351 8.18748 19.6719 8.26135 19.8878 8.31817L21.0696 8.63635C21.3726 8.71589 21.7098 8.82574 22.081 8.96589C22.456 9.10605 22.8139 9.29733 23.1548 9.53976C23.4995 9.77839 23.7836 10.0852 24.0071 10.4602C24.2306 10.8352 24.3423 11.2954 24.3423 11.8409C24.3423 12.4697 24.1776 13.0379 23.848 13.5454C23.5223 14.053 23.045 14.4564 22.4162 14.7557C21.7912 15.0549 21.0317 15.2045 20.1378 15.2045C19.3045 15.2045 18.5829 15.0701 17.973 14.8011C17.367 14.5322 16.8897 14.1572 16.5412 13.6761C16.1965 13.1951 16.0014 12.6363 15.956 12H17.4105C17.4484 12.4394 17.5961 12.803 17.8537 13.0909C18.1151 13.375 18.4446 13.5871 18.8423 13.7273C19.2438 13.8636 19.6757 13.9318 20.1378 13.9318C20.6757 13.9318 21.1586 13.8447 21.5866 13.6704C22.0147 13.4924 22.3537 13.2462 22.6037 12.9318C22.8537 12.6136 22.9787 12.2424 22.9787 11.8182C22.9787 11.4318 22.8707 11.1174 22.6548 10.875C22.4389 10.6326 22.1548 10.4356 21.8026 10.2841C21.4503 10.1326 21.0696 9.99998 20.6605 9.88635L19.2287 9.47726C18.3196 9.21589 17.5999 8.84279 17.0696 8.35794C16.5393 7.87309 16.2741 7.23862 16.2741 6.45453C16.2741 5.80301 16.4503 5.23483 16.8026 4.74998C17.1586 4.26135 17.6359 3.88256 18.2344 3.61362C18.8366 3.34089 19.509 3.20453 20.2514 3.20453C21.0014 3.20453 21.6681 3.339 22.2514 3.60794C22.8348 3.87309 23.2969 4.23673 23.6378 4.69885C23.9825 5.16097 24.1643 5.68559 24.1832 6.27271H22.8196ZM28.0682 3.36362V15H26.6591V3.36362H28.0682ZM40.7116 9.1818C40.7116 10.4091 40.4901 11.4697 40.0469 12.3636C39.6037 13.2576 38.9957 13.947 38.223 14.4318C37.4503 14.9167 36.5677 15.1591 35.5753 15.1591C34.5829 15.1591 33.7003 14.9167 32.9276 14.4318C32.1548 13.947 31.5469 13.2576 31.1037 12.3636C30.6605 11.4697 30.4389 10.4091 30.4389 9.1818C30.4389 7.95453 30.6605 6.89392 31.1037 5.99998C31.5469 5.10605 32.1548 4.41665 32.9276 3.9318C33.7003 3.44695 34.5829 3.20453 35.5753 3.20453C36.5677 3.20453 37.4503 3.44695 38.223 3.9318C38.9957 4.41665 39.6037 5.10605 40.0469 5.99998C40.4901 6.89392 40.7116 7.95453 40.7116 9.1818ZM39.348 9.1818C39.348 8.17423 39.1795 7.32385 38.8423 6.63067C38.509 5.93748 38.0563 5.41286 37.4844 5.0568C36.9162 4.70074 36.2798 4.52271 35.5753 4.52271C34.8707 4.52271 34.2325 4.70074 33.6605 5.0568C33.0923 5.41286 32.6397 5.93748 32.3026 6.63067C31.9692 7.32385 31.8026 8.17423 31.8026 9.1818C31.8026 10.1894 31.9692 11.0398 32.3026 11.7329C32.6397 12.4261 33.0923 12.9507 33.6605 13.3068C34.2325 13.6629 34.8707 13.8409 35.5753 13.8409C36.2798 13.8409 36.9162 13.6629 37.4844 13.3068C38.0563 12.9507 38.509 12.4261 38.8423 11.7329C39.1795 11.0398 39.348 10.1894 39.348 9.1818ZM52.3082 3.36362V15H50.9446L44.6037 5.86362H44.4901V15H43.081V3.36362H44.4446L50.8082 12.5227H50.9219V3.36362H52.3082Z" fill="#959595"/>
<path d="M54.7301 15V3.36362H59.321C60.2036 3.36362 60.9555 3.53218 61.5767 3.8693C62.1979 4.20264 62.6714 4.66665 62.9972 5.26135C63.3267 5.85226 63.4915 6.53408 63.4915 7.3068C63.4915 8.07953 63.3248 8.76135 62.9915 9.35226C62.6581 9.94317 62.1752 10.4034 61.5426 10.7329C60.9138 11.0625 60.1525 11.2273 59.2585 11.2273H56.3324V9.25567H58.8608C59.3343 9.25567 59.7244 9.17423 60.0312 9.01135C60.3419 8.84468 60.5729 8.61551 60.7244 8.32385C60.8797 8.02839 60.9574 7.68938 60.9574 7.3068C60.9574 6.92044 60.8797 6.58332 60.7244 6.29544C60.5729 6.00377 60.3419 5.77839 60.0312 5.6193C59.7206 5.45642 59.3267 5.37498 58.8494 5.37498H57.1903V15H54.7301ZM65.7514 15H63.1151L67.1321 3.36362H70.3026L74.3139 15H71.6776L68.7628 6.02271H68.6719L65.7514 15ZM65.5866 10.4261H71.8139V12.3466H65.5866V10.4261ZM73.8452 3.36362H76.6009L79.2543 8.37498H79.3679L82.0213 3.36362H84.777L80.5327 10.8863V15H78.0895V10.8863L73.8452 3.36362Z" fill="white"/>
<path fill-rule="evenodd" clip-rule="evenodd" d="M95.2028 13.8617L95.1995 13.8662L95.1963 13.8707C95.0183 14.1227 94.6196 14.1968 94.3078 13.9765C94.0581 13.8003 93.9831 13.4074 94.1957 13.097C94.5128 12.6927 94.7431 12.2201 94.8944 11.7581C95.0519 11.2771 95.1251 10.7305 95.1223 10.1944C95.1194 9.65839 95.0404 9.11264 94.8778 8.63335C94.7216 8.17297 94.4862 7.70282 94.1648 7.30196C93.9489 6.99378 94.0198 6.60018 94.2675 6.42124C94.577 6.1977 94.9765 6.26751 95.1571 6.51762L95.1604 6.52211L95.1637 6.52652C95.5638 7.05406 95.8919 7.6402 96.088 8.21525C96.2944 8.89172 96.4259 9.54609 96.4293 10.1875C96.4329 10.8625 96.3684 11.5013 96.1207 12.1302C95.851 12.8151 95.5898 13.34 95.2028 13.8617ZM98.0954 15.1145L98.1032 15.1034L98.1104 15.0919C98.9971 13.6713 99.5085 11.957 99.499 10.1711C99.4895 8.38571 98.9601 6.67739 98.0587 5.26647C97.8634 4.95671 97.9511 4.59046 98.2804 4.35263C98.5015 4.1929 98.9166 4.24945 99.1629 4.57954C100.181 6.19417 100.795 8.14601 100.806 10.1642C100.817 12.2513 100.224 14.1397 99.2224 15.7662C98.9908 16.085 98.6362 16.1743 98.3304 15.9936C97.9988 15.7507 97.9382 15.337 98.0954 15.1145ZM103.286 2.45725L103.295 2.4745L103.305 2.49099C104.684 4.7392 105.45 7.33244 105.465 10.1394C105.48 12.945 104.742 15.5452 103.388 17.8072C103.181 18.1409 102.83 18.235 102.475 18.0697C102.152 17.859 102.065 17.5098 102.234 17.1571C103.385 15.1125 104.101 12.703 104.088 10.1467C104.074 7.60177 103.408 5.1962 102.157 3.15138C101.988 2.80223 102.071 2.4545 102.391 2.24139C102.776 2.05726 103.152 2.19222 103.286 2.45725ZM107.369 0.317677L107.375 0.329461L107.382 0.340897C109.053 3.22943 110.035 6.53186 110.054 10.1149C110.073 13.6943 109.128 17.0039 107.491 19.9079C107.283 20.2378 106.934 20.3302 106.581 20.1656C106.259 19.9556 106.171 19.608 106.338 19.2564C107.915 16.5648 108.764 13.4463 108.747 10.1219C108.729 6.78888 107.772 3.68252 106.243 1.01742C106.051 0.628369 106.186 0.247335 106.454 0.111845C106.846 -0.0870303 107.232 0.0479698 107.369 0.317677Z" fill="white"/>
</svg>
